<svg width="26" height="26" viewBox="0 0 26 26" fill="none" xmlns="http://www.w3.org/2000/svg">
<g id="arrow_back_FILL1_wght300_GRAD0_opsz24 1">
<path id="Vector" d="M7.98756 11.8125L13.5876 17.4125C13.7487 17.5736 13.8282 17.7622 13.8261 17.9781C13.824 18.1941 13.739 18.3861 13.5709 18.5542C13.4028 18.7111 13.2126 18.7924 13.0001 18.7979C12.7876 18.8035 12.5973 18.7222 12.4293 18.5542L5.56054 11.6854C5.45915 11.5841 5.38763 11.4771 5.34596 11.3646C5.30428 11.2521 5.28345 11.1306 5.28345 11C5.28345 10.8695 5.30428 10.748 5.34596 10.6355C5.38763 10.523 5.45915 10.416 5.56054 10.3146L12.4293 3.4459C12.5793 3.29589 12.765 3.21916 12.9865 3.21569C13.2081 3.21222 13.4028 3.28896 13.5709 3.4459C13.739 3.61394 13.823 3.80699 13.823 4.02505C13.823 4.2431 13.739 4.43615 13.5709 4.6042L7.98756 10.1876H20.3126C20.5431 10.1876 20.7362 10.2653 20.8917 10.4209C21.0473 10.5764 21.1251 10.7695 21.1251 11C21.1251 11.2306 21.0473 11.4236 20.8917 11.5792C20.7362 11.7347 20.5431 11.8125 20.3126 11.8125H7.98756Z" fill="#B28A65"/>
</g>
</svg>
