<svg width="22" height="24" viewBox="0 0 22 24" fill="none" xmlns="http://www.w3.org/2000/svg">
<path id="Vector" d="M0 21.1682V8.63618C0 8.2307 0.090702 7.84657 0.272106 7.48379C0.45351 7.12101 0.70426 6.82224 1.02436 6.5875L9.08845 0.512195C9.53595 0.170731 10.0474 0 10.6228 0C11.1981 0 11.711 0.170731 12.1615 0.512195L20.2256 6.5875C20.5457 6.82224 20.7964 7.12101 20.9778 7.48379C21.1592 7.84657 21.2499 8.2307 21.2499 8.63618V21.1682C21.2499 21.7476 21.0406 22.2466 20.622 22.6652C20.2033 23.0839 19.7043 23.2932 19.125 23.2932H14.6025C14.2397 23.2932 13.9356 23.1705 13.6902 22.925C13.4448 22.6796 13.3221 22.3755 13.3221 22.0127V15.0929C13.3221 14.7301 13.1994 14.426 12.9539 14.1805C12.7085 13.9351 12.4044 13.8124 12.0416 13.8124H9.2083C8.84551 13.8124 8.54141 13.9351 8.296 14.1805C8.05056 14.426 7.92784 14.7301 7.92784 15.0929V22.0127C7.92784 22.3755 7.80514 22.6796 7.55972 22.925C7.31431 23.1705 7.01021 23.2932 6.64742 23.2932H2.12496C1.54559 23.2932 1.0466 23.0839 0.627972 22.6652C0.209324 22.2466 0 21.7476 0 21.1682Z" fill="#B28A65"/>
</svg>
